<mxfile host="app.diagrams.net" modified="2023-08-22T14:52:20.703Z" agent="Mozilla/5.0 (Windows NT 10.0; Win64; x64) AppleWebKit/537.36 (KHTML, like Gecko) Chrome/115.0.0.0 Safari/537.36 Edg/115.0.1901.203" etag="SgocrXqanm2Cfy8I1htm" version="21.6.8" type="github">
  <diagram id="prtHgNgQTEPvFCAcTncT" name="Page-1">
    <mxGraphModel dx="3088" dy="2076" grid="1" gridSize="10" guides="1" tooltips="1" connect="1" arrows="1" fold="1" page="1" pageScale="1" pageWidth="827" pageHeight="1169" math="0" shadow="0">
      <root>
        <mxCell id="0" />
        <mxCell id="1" parent="0" />
        <mxCell id="IWpaycsdAOqvstb7Vodf-1" style="edgeStyle=orthogonalEdgeStyle;rounded=0;orthogonalLoop=1;jettySize=auto;html=1;entryX=0.5;entryY=0;entryDx=0;entryDy=0;" edge="1" parent="1" source="IWpaycsdAOqvstb7Vodf-3" target="IWpaycsdAOqvstb7Vodf-6">
          <mxGeometry relative="1" as="geometry">
            <Array as="points">
              <mxPoint x="-920" />
              <mxPoint x="-1090" />
            </Array>
          </mxGeometry>
        </mxCell>
        <mxCell id="IWpaycsdAOqvstb7Vodf-2" style="edgeStyle=orthogonalEdgeStyle;rounded=0;orthogonalLoop=1;jettySize=auto;html=1;entryX=0.5;entryY=0;entryDx=0;entryDy=0;" edge="1" parent="1" source="IWpaycsdAOqvstb7Vodf-3" target="IWpaycsdAOqvstb7Vodf-9">
          <mxGeometry relative="1" as="geometry">
            <Array as="points">
              <mxPoint x="-920" />
              <mxPoint x="-760" />
            </Array>
          </mxGeometry>
        </mxCell>
        <mxCell id="IWpaycsdAOqvstb7Vodf-3" value="Organization" style="rounded=0;whiteSpace=wrap;html=1;fillColor=#f8cecc;strokeColor=#b85450;" vertex="1" parent="1">
          <mxGeometry x="-980" y="-80" width="120" height="40" as="geometry" />
        </mxCell>
        <mxCell id="IWpaycsdAOqvstb7Vodf-4" style="edgeStyle=orthogonalEdgeStyle;rounded=0;orthogonalLoop=1;jettySize=auto;html=1;entryX=0.5;entryY=0;entryDx=0;entryDy=0;" edge="1" parent="1" source="IWpaycsdAOqvstb7Vodf-6" target="IWpaycsdAOqvstb7Vodf-11">
          <mxGeometry relative="1" as="geometry" />
        </mxCell>
        <mxCell id="IWpaycsdAOqvstb7Vodf-5" style="edgeStyle=orthogonalEdgeStyle;rounded=0;orthogonalLoop=1;jettySize=auto;html=1;entryX=0.5;entryY=0;entryDx=0;entryDy=0;" edge="1" parent="1" source="IWpaycsdAOqvstb7Vodf-6" target="IWpaycsdAOqvstb7Vodf-12">
          <mxGeometry relative="1" as="geometry" />
        </mxCell>
        <mxCell id="IWpaycsdAOqvstb7Vodf-6" value="Comapny 1" style="rounded=0;whiteSpace=wrap;html=1;fillColor=#d5e8d4;strokeColor=#82b366;" vertex="1" parent="1">
          <mxGeometry x="-1140" y="40" width="120" height="40" as="geometry" />
        </mxCell>
        <mxCell id="IWpaycsdAOqvstb7Vodf-7" style="edgeStyle=orthogonalEdgeStyle;rounded=0;orthogonalLoop=1;jettySize=auto;html=1;entryX=0.573;entryY=0.05;entryDx=0;entryDy=0;entryPerimeter=0;" edge="1" parent="1" source="IWpaycsdAOqvstb7Vodf-9" target="IWpaycsdAOqvstb7Vodf-13">
          <mxGeometry relative="1" as="geometry" />
        </mxCell>
        <mxCell id="IWpaycsdAOqvstb7Vodf-8" style="edgeStyle=orthogonalEdgeStyle;rounded=0;orthogonalLoop=1;jettySize=auto;html=1;entryX=0.5;entryY=0;entryDx=0;entryDy=0;" edge="1" parent="1" source="IWpaycsdAOqvstb7Vodf-9" target="IWpaycsdAOqvstb7Vodf-14">
          <mxGeometry relative="1" as="geometry" />
        </mxCell>
        <mxCell id="IWpaycsdAOqvstb7Vodf-9" value="Company n" style="rounded=0;whiteSpace=wrap;html=1;fillColor=#d5e8d4;strokeColor=#82b366;" vertex="1" parent="1">
          <mxGeometry x="-820" y="40" width="120" height="40" as="geometry" />
        </mxCell>
        <mxCell id="IWpaycsdAOqvstb7Vodf-10" value="" style="endArrow=none;dashed=1;html=1;dashPattern=1 3;strokeWidth=2;rounded=0;" edge="1" parent="1">
          <mxGeometry width="50" height="50" relative="1" as="geometry">
            <mxPoint x="-988" y="63" as="sourcePoint" />
            <mxPoint x="-858" y="63" as="targetPoint" />
          </mxGeometry>
        </mxCell>
        <mxCell id="IWpaycsdAOqvstb7Vodf-11" value="Dept 1" style="rounded=0;whiteSpace=wrap;html=1;fillColor=#dae8fc;strokeColor=#6c8ebf;" vertex="1" parent="1">
          <mxGeometry x="-1230" y="160" width="110" height="40" as="geometry" />
        </mxCell>
        <mxCell id="IWpaycsdAOqvstb7Vodf-12" value="Dept n" style="rounded=0;whiteSpace=wrap;html=1;fillColor=#dae8fc;strokeColor=#6c8ebf;" vertex="1" parent="1">
          <mxGeometry x="-1040" y="160" width="110" height="40" as="geometry" />
        </mxCell>
        <mxCell id="IWpaycsdAOqvstb7Vodf-13" value="Dept 1" style="rounded=0;whiteSpace=wrap;html=1;fillColor=#dae8fc;strokeColor=#6c8ebf;" vertex="1" parent="1">
          <mxGeometry x="-910" y="160" width="110" height="40" as="geometry" />
        </mxCell>
        <mxCell id="IWpaycsdAOqvstb7Vodf-14" value="Dept n" style="rounded=0;whiteSpace=wrap;html=1;fillColor=#dae8fc;strokeColor=#6c8ebf;" vertex="1" parent="1">
          <mxGeometry x="-720" y="160" width="110" height="40" as="geometry" />
        </mxCell>
        <mxCell id="IWpaycsdAOqvstb7Vodf-15" value="" style="swimlane;startSize=0;fillColor=#f8cecc;strokeColor=#b85450;" vertex="1" parent="1">
          <mxGeometry x="-1320" y="-100" width="800" height="320" as="geometry" />
        </mxCell>
        <mxCell id="IWpaycsdAOqvstb7Vodf-16" value="" style="endArrow=none;dashed=1;html=1;dashPattern=1 3;strokeWidth=2;rounded=0;" edge="1" parent="IWpaycsdAOqvstb7Vodf-15">
          <mxGeometry width="50" height="50" relative="1" as="geometry">
            <mxPoint x="213.5" y="279.5" as="sourcePoint" />
            <mxPoint x="268.5" y="280" as="targetPoint" />
            <Array as="points" />
          </mxGeometry>
        </mxCell>
        <mxCell id="IWpaycsdAOqvstb7Vodf-17" value="" style="endArrow=none;dashed=1;html=1;dashPattern=1 3;strokeWidth=2;rounded=0;" edge="1" parent="IWpaycsdAOqvstb7Vodf-15">
          <mxGeometry width="50" height="50" relative="1" as="geometry">
            <mxPoint x="530.5" y="279.5" as="sourcePoint" />
            <mxPoint x="585.5" y="280" as="targetPoint" />
            <Array as="points" />
          </mxGeometry>
        </mxCell>
        <mxCell id="IWpaycsdAOqvstb7Vodf-18" style="edgeStyle=orthogonalEdgeStyle;rounded=0;orthogonalLoop=1;jettySize=auto;html=1;entryX=0.5;entryY=1;entryDx=0;entryDy=0;" edge="1" parent="IWpaycsdAOqvstb7Vodf-15" source="IWpaycsdAOqvstb7Vodf-19" target="IWpaycsdAOqvstb7Vodf-20">
          <mxGeometry relative="1" as="geometry" />
        </mxCell>
        <mxCell id="IWpaycsdAOqvstb7Vodf-19" value="" style="swimlane;startSize=0;fillColor=#6a00ff;strokeColor=#3700CC;fontColor=#ffffff;fillStyle=auto;gradientColor=none;" vertex="1" parent="IWpaycsdAOqvstb7Vodf-15">
          <mxGeometry x="160" y="130" width="480" height="60" as="geometry" />
        </mxCell>
        <mxCell id="IWpaycsdAOqvstb7Vodf-20" value="Industy" style="rounded=0;whiteSpace=wrap;html=1;fillColor=#008a00;fontColor=#ffffff;strokeColor=#005700;" vertex="1" parent="IWpaycsdAOqvstb7Vodf-15">
          <mxGeometry x="660" y="60" width="110" height="40" as="geometry" />
        </mxCell>
        <mxCell id="IWpaycsdAOqvstb7Vodf-21" style="edgeStyle=orthogonalEdgeStyle;rounded=0;orthogonalLoop=1;jettySize=auto;html=1;" edge="1" parent="1" source="IWpaycsdAOqvstb7Vodf-22" target="IWpaycsdAOqvstb7Vodf-15">
          <mxGeometry relative="1" as="geometry" />
        </mxCell>
        <mxCell id="IWpaycsdAOqvstb7Vodf-22" value="INFO" style="rounded=0;whiteSpace=wrap;html=1;fillColor=#1ba1e2;fontColor=#ffffff;strokeColor=#006EAF;" vertex="1" parent="1">
          <mxGeometry x="-480" y="30" width="120" height="60" as="geometry" />
        </mxCell>
        <mxCell id="IWpaycsdAOqvstb7Vodf-23" style="edgeStyle=orthogonalEdgeStyle;rounded=0;orthogonalLoop=1;jettySize=auto;html=1;entryX=0;entryY=0.5;entryDx=0;entryDy=0;" edge="1" parent="1" source="IWpaycsdAOqvstb7Vodf-25" target="IWpaycsdAOqvstb7Vodf-15">
          <mxGeometry relative="1" as="geometry" />
        </mxCell>
        <mxCell id="IWpaycsdAOqvstb7Vodf-24" style="edgeStyle=orthogonalEdgeStyle;rounded=0;orthogonalLoop=1;jettySize=auto;html=1;entryX=0.5;entryY=0;entryDx=0;entryDy=0;" edge="1" parent="1" source="IWpaycsdAOqvstb7Vodf-25" target="IWpaycsdAOqvstb7Vodf-27">
          <mxGeometry relative="1" as="geometry" />
        </mxCell>
        <mxCell id="IWpaycsdAOqvstb7Vodf-25" value="User" style="rounded=0;whiteSpace=wrap;html=1;fillColor=#e51400;fontColor=#ffffff;strokeColor=#B20000;" vertex="1" parent="1">
          <mxGeometry x="-1480" y="30" width="120" height="60" as="geometry" />
        </mxCell>
        <mxCell id="IWpaycsdAOqvstb7Vodf-26" style="edgeStyle=orthogonalEdgeStyle;rounded=0;orthogonalLoop=1;jettySize=auto;html=1;entryX=0.5;entryY=0;entryDx=0;entryDy=0;" edge="1" parent="1" source="IWpaycsdAOqvstb7Vodf-27" target="IWpaycsdAOqvstb7Vodf-28">
          <mxGeometry relative="1" as="geometry" />
        </mxCell>
        <mxCell id="IWpaycsdAOqvstb7Vodf-27" value="Employees" style="rounded=0;whiteSpace=wrap;html=1;" vertex="1" parent="1">
          <mxGeometry x="-1480" y="140" width="120" height="40" as="geometry" />
        </mxCell>
        <mxCell id="IWpaycsdAOqvstb7Vodf-28" value="Roles" style="rounded=0;whiteSpace=wrap;html=1;fillColor=#f5f5f5;strokeColor=#666666;fontColor=#333333;" vertex="1" parent="1">
          <mxGeometry x="-1480" y="230" width="120" height="40" as="geometry" />
        </mxCell>
      </root>
    </mxGraphModel>
  </diagram>
</mxfile>
